<svg width="48" height="48" viewBox="0 0 48 48" fill="none" xmlns="http://www.w3.org/2000/svg">
<path d="M24.3274 45.9882C28.9654 45.9882 32.7251 43.9516 32.7251 41.4394C32.7251 38.9272 28.9654 36.8906 24.3274 36.8906C19.6895 36.8906 15.9297 38.9272 15.9297 41.4394C15.9297 43.9516 19.6895 45.9882 24.3274 45.9882Z" fill="#FF3A72"/>
<path d="M43.4433 34.5577C45.6407 30.7493 45.6268 26.6249 43.4122 25.3455C41.1976 24.0661 37.621 26.1163 35.4236 29.9246C33.2262 33.733 33.2401 37.8575 35.4547 39.1368C37.6693 40.4162 41.2459 38.3661 43.4433 34.5577Z" fill="#FF3A72"/>
<path d="M24.3274 10.2968C28.9654 10.2968 32.7251 8.26021 32.7251 5.74799C32.7251 3.23577 28.9654 1.19922 24.3274 1.19922C19.6895 1.19922 15.9297 3.23577 15.9297 5.74799C15.9297 8.26021 19.6895 10.2968 24.3274 10.2968Z" fill="#FF3A72"/>
<path d="M13.2363 17.1085C15.4337 13.3001 15.4198 9.1757 13.2052 7.89633C10.9906 6.61696 7.41397 8.6671 5.21656 12.4755C3.01915 16.2838 3.03307 20.4082 5.24765 21.6876C7.46224 22.967 11.0389 20.9168 13.2363 17.1085Z" fill="#FF3A72"/>
<path d="M13.2052 39.133C15.4197 37.8536 15.4337 33.7292 13.2363 29.9208C11.0389 26.1125 7.46222 24.0623 5.24764 25.3417C3.03306 26.6211 3.01915 30.7455 5.21656 34.5538C7.41397 38.3622 10.9906 40.4123 13.2052 39.133Z" fill="#FF3A72"/>
<path d="M43.4122 21.6838C45.6268 20.4044 45.6407 16.28 43.4433 12.4716C41.2459 8.66325 37.6693 6.61309 35.4547 7.89247C33.2401 9.17184 33.2262 13.2963 35.4236 17.1046C37.621 20.913 41.1976 22.9632 43.4122 21.6838Z" fill="#FF3A72"/>
</svg>
